<mxfile host="app.diagrams.net" modified="2024-06-27T19:49:26.691Z" agent="Mozilla/5.0 (Windows NT 10.0; Win64; x64) AppleWebKit/537.36 (KHTML, like Gecko) Chrome/125.0.0.0 Safari/537.36 Edg/125.0.0.0" etag="SoFy9WeOArP9JFwl1Rh5" version="24.6.4" type="github">
  <diagram name="Page-1" id="2YBvvXClWsGukQMizWep">
    <mxGraphModel dx="1002" dy="569" grid="1" gridSize="10" guides="1" tooltips="1" connect="1" arrows="1" fold="1" page="1" pageScale="1" pageWidth="850" pageHeight="1100" math="0" shadow="0">
      <root>
        <mxCell id="0" />
        <mxCell id="1" parent="0" />
        <mxCell id="6APCMfDVziARA75Oa-AB-33" value="itemCTR:ItemControler" style="shape=umlLifeline;perimeter=lifelinePerimeter;whiteSpace=wrap;html=1;container=0;dropTarget=0;collapsible=0;recursiveResize=0;outlineConnect=0;portConstraint=eastwest;newEdgeStyle={&quot;edgeStyle&quot;:&quot;elbowEdgeStyle&quot;,&quot;elbow&quot;:&quot;vertical&quot;,&quot;curved&quot;:0,&quot;rounded&quot;:0};fontSize=19;" vertex="1" parent="1">
          <mxGeometry x="605" y="80" width="190" height="360" as="geometry" />
        </mxCell>
        <mxCell id="6APCMfDVziARA75Oa-AB-34" value="" style="html=1;points=[];perimeter=orthogonalPerimeter;outlineConnect=0;targetShapes=umlLifeline;portConstraint=eastwest;newEdgeStyle={&quot;edgeStyle&quot;:&quot;elbowEdgeStyle&quot;,&quot;elbow&quot;:&quot;vertical&quot;,&quot;curved&quot;:0,&quot;rounded&quot;:0};fontSize=19;" vertex="1" parent="6APCMfDVziARA75Oa-AB-33">
          <mxGeometry x="90" y="80" width="10" height="140" as="geometry" />
        </mxCell>
        <mxCell id="6APCMfDVziARA75Oa-AB-35" value="" style="html=1;verticalAlign=bottom;endArrow=block;edgeStyle=elbowEdgeStyle;elbow=vertical;curved=0;rounded=0;fontSize=19;" edge="1" parent="1" target="6APCMfDVziARA75Oa-AB-34">
          <mxGeometry relative="1" as="geometry">
            <mxPoint x="229.99999999999977" y="160" as="sourcePoint" />
            <Array as="points">
              <mxPoint x="325" y="160" />
            </Array>
          </mxGeometry>
        </mxCell>
        <mxCell id="6APCMfDVziARA75Oa-AB-36" value="&amp;lt;catNum, location&amp;gt; =&lt;br&gt;+reportDamage(int idToReport) " style="edgeLabel;html=1;align=center;verticalAlign=middle;resizable=0;points=[];fontSize=19;" vertex="1" connectable="0" parent="6APCMfDVziARA75Oa-AB-35">
          <mxGeometry x="0.0571" relative="1" as="geometry">
            <mxPoint as="offset" />
          </mxGeometry>
        </mxCell>
        <mxCell id="6APCMfDVziARA75Oa-AB-37" value="itemRepo:ItemRepo" style="shape=umlLifeline;perimeter=lifelinePerimeter;whiteSpace=wrap;html=1;container=0;dropTarget=0;collapsible=0;recursiveResize=0;outlineConnect=0;portConstraint=eastwest;newEdgeStyle={&quot;edgeStyle&quot;:&quot;elbowEdgeStyle&quot;,&quot;elbow&quot;:&quot;vertical&quot;,&quot;curved&quot;:0,&quot;rounded&quot;:0};fontSize=19;" vertex="1" parent="1">
          <mxGeometry x="935" y="80" width="190" height="370" as="geometry" />
        </mxCell>
        <mxCell id="6APCMfDVziARA75Oa-AB-38" value="" style="html=1;points=[];perimeter=orthogonalPerimeter;outlineConnect=0;targetShapes=umlLifeline;portConstraint=eastwest;newEdgeStyle={&quot;edgeStyle&quot;:&quot;elbowEdgeStyle&quot;,&quot;elbow&quot;:&quot;vertical&quot;,&quot;curved&quot;:0,&quot;rounded&quot;:0};fontSize=19;" vertex="1" parent="6APCMfDVziARA75Oa-AB-37">
          <mxGeometry x="90" y="80" width="10" height="70" as="geometry" />
        </mxCell>
        <mxCell id="6APCMfDVziARA75Oa-AB-39" value="" style="html=1;points=[];perimeter=orthogonalPerimeter;outlineConnect=0;targetShapes=umlLifeline;portConstraint=eastwest;newEdgeStyle={&quot;edgeStyle&quot;:&quot;elbowEdgeStyle&quot;,&quot;elbow&quot;:&quot;vertical&quot;,&quot;curved&quot;:0,&quot;rounded&quot;:0};fontSize=19;" vertex="1" parent="6APCMfDVziARA75Oa-AB-37">
          <mxGeometry x="90" y="200" width="10" height="20" as="geometry" />
        </mxCell>
        <mxCell id="6APCMfDVziARA75Oa-AB-40" style="edgeStyle=elbowEdgeStyle;rounded=0;orthogonalLoop=1;jettySize=auto;html=1;elbow=vertical;curved=0;fontSize=19;" edge="1" parent="1">
          <mxGeometry relative="1" as="geometry">
            <mxPoint x="705" y="290.0013793103449" as="sourcePoint" />
            <mxPoint x="1029.5" y="290.0689655172414" as="targetPoint" />
          </mxGeometry>
        </mxCell>
        <mxCell id="6APCMfDVziARA75Oa-AB-41" value="reportDamageRepo(&lt;div&gt;int idToReport) &lt;/div&gt;" style="edgeLabel;html=1;align=center;verticalAlign=middle;resizable=0;points=[];fontSize=19;" vertex="1" connectable="0" parent="6APCMfDVziARA75Oa-AB-40">
          <mxGeometry x="-0.1297" y="2" relative="1" as="geometry">
            <mxPoint as="offset" />
          </mxGeometry>
        </mxCell>
        <mxCell id="6APCMfDVziARA75Oa-AB-42" style="edgeStyle=elbowEdgeStyle;rounded=0;orthogonalLoop=1;jettySize=auto;html=1;elbow=vertical;curved=0;fontSize=19;" edge="1" parent="1">
          <mxGeometry relative="1" as="geometry">
            <mxPoint x="705" y="170.28137931034487" as="sourcePoint" />
            <mxPoint x="1029.5" y="170.28137931034487" as="targetPoint" />
          </mxGeometry>
        </mxCell>
        <mxCell id="6APCMfDVziARA75Oa-AB-43" value="reported = find(idToRem)" style="edgeLabel;html=1;align=center;verticalAlign=middle;resizable=0;points=[];fontSize=19;" vertex="1" connectable="0" parent="6APCMfDVziARA75Oa-AB-42">
          <mxGeometry x="-0.0722" y="-1" relative="1" as="geometry">
            <mxPoint x="19" y="-1" as="offset" />
          </mxGeometry>
        </mxCell>
        <mxCell id="6APCMfDVziARA75Oa-AB-44" value="" style="html=1;verticalAlign=bottom;endArrow=open;dashed=1;endSize=8;curved=0;rounded=0;fontSize=19;" edge="1" parent="1" target="6APCMfDVziARA75Oa-AB-33">
          <mxGeometry relative="1" as="geometry">
            <mxPoint x="1025" y="220" as="sourcePoint" />
            <mxPoint x="945" y="220" as="targetPoint" />
          </mxGeometry>
        </mxCell>
        <mxCell id="6APCMfDVziARA75Oa-AB-45" value="reported&amp;nbsp;" style="edgeLabel;html=1;align=center;verticalAlign=middle;resizable=0;points=[];fontSize=19;" vertex="1" connectable="0" parent="6APCMfDVziARA75Oa-AB-44">
          <mxGeometry x="0.0313" relative="1" as="geometry">
            <mxPoint as="offset" />
          </mxGeometry>
        </mxCell>
        <mxCell id="6APCMfDVziARA75Oa-AB-46" value="" style="html=1;verticalAlign=bottom;endArrow=open;dashed=1;endSize=8;curved=0;rounded=0;fontSize=19;" edge="1" parent="1">
          <mxGeometry relative="1" as="geometry">
            <mxPoint x="700" y="240" as="sourcePoint" />
            <mxPoint x="234.66666666666663" y="240" as="targetPoint" />
          </mxGeometry>
        </mxCell>
        <mxCell id="6APCMfDVziARA75Oa-AB-47" value="&amp;lt;catNum, location&amp;gt;" style="edgeLabel;html=1;align=center;verticalAlign=middle;resizable=0;points=[];fontSize=19;" vertex="1" connectable="0" parent="6APCMfDVziARA75Oa-AB-46">
          <mxGeometry x="-0.0193" y="2" relative="1" as="geometry">
            <mxPoint as="offset" />
          </mxGeometry>
        </mxCell>
        <mxCell id="6APCMfDVziARA75Oa-AB-48" value="prodCTR:ProductControler" style="shape=umlLifeline;perimeter=lifelinePerimeter;whiteSpace=wrap;html=1;container=0;dropTarget=0;collapsible=0;recursiveResize=0;outlineConnect=0;portConstraint=eastwest;newEdgeStyle={&quot;edgeStyle&quot;:&quot;elbowEdgeStyle&quot;,&quot;elbow&quot;:&quot;vertical&quot;,&quot;curved&quot;:0,&quot;rounded&quot;:0};fontSize=19;" vertex="1" parent="1">
          <mxGeometry x="1205" y="80" width="230" height="380" as="geometry" />
        </mxCell>
        <mxCell id="6APCMfDVziARA75Oa-AB-49" value="" style="html=1;points=[];perimeter=orthogonalPerimeter;outlineConnect=0;targetShapes=umlLifeline;portConstraint=eastwest;newEdgeStyle={&quot;edgeStyle&quot;:&quot;elbowEdgeStyle&quot;,&quot;elbow&quot;:&quot;vertical&quot;,&quot;curved&quot;:0,&quot;rounded&quot;:0};fontSize=19;" vertex="1" parent="6APCMfDVziARA75Oa-AB-48">
          <mxGeometry x="110" y="250" width="10" height="90" as="geometry" />
        </mxCell>
        <mxCell id="6APCMfDVziARA75Oa-AB-50" style="edgeStyle=elbowEdgeStyle;rounded=0;orthogonalLoop=1;jettySize=auto;html=1;elbow=vertical;curved=0;fontSize=19;" edge="1" parent="1" source="6APCMfDVziARA75Oa-AB-61" target="6APCMfDVziARA75Oa-AB-49">
          <mxGeometry relative="1" as="geometry">
            <mxPoint x="240" y="339.9966666666667" as="sourcePoint" />
            <mxPoint x="1299.5000000000002" y="339.9966666666667" as="targetPoint" />
            <Array as="points">
              <mxPoint x="220" y="340" />
            </Array>
          </mxGeometry>
        </mxCell>
        <mxCell id="6APCMfDVziARA75Oa-AB-51" value="removeItemCTR(catNum, location) " style="edgeLabel;html=1;align=center;verticalAlign=middle;resizable=0;points=[];fontSize=19;" vertex="1" connectable="0" parent="6APCMfDVziARA75Oa-AB-50">
          <mxGeometry x="-0.0565" y="-1" relative="1" as="geometry">
            <mxPoint as="offset" />
          </mxGeometry>
        </mxCell>
        <mxCell id="6APCMfDVziARA75Oa-AB-52" value="prodCTR:ProductControler" style="shape=umlLifeline;perimeter=lifelinePerimeter;whiteSpace=wrap;html=1;container=0;dropTarget=0;collapsible=0;recursiveResize=0;outlineConnect=0;portConstraint=eastwest;newEdgeStyle={&quot;edgeStyle&quot;:&quot;elbowEdgeStyle&quot;,&quot;elbow&quot;:&quot;vertical&quot;,&quot;curved&quot;:0,&quot;rounded&quot;:0};fontSize=19;" vertex="1" parent="1">
          <mxGeometry x="1595" y="80" width="230" height="380" as="geometry" />
        </mxCell>
        <mxCell id="6APCMfDVziARA75Oa-AB-53" value="" style="html=1;points=[];perimeter=orthogonalPerimeter;outlineConnect=0;targetShapes=umlLifeline;portConstraint=eastwest;newEdgeStyle={&quot;edgeStyle&quot;:&quot;elbowEdgeStyle&quot;,&quot;elbow&quot;:&quot;vertical&quot;,&quot;curved&quot;:0,&quot;rounded&quot;:0};fontSize=19;" vertex="1" parent="6APCMfDVziARA75Oa-AB-52">
          <mxGeometry x="110" y="280" width="10" height="50" as="geometry" />
        </mxCell>
        <mxCell id="6APCMfDVziARA75Oa-AB-54" style="edgeStyle=elbowEdgeStyle;rounded=0;orthogonalLoop=1;jettySize=auto;html=1;elbow=vertical;curved=0;fontSize=19;" edge="1" parent="1" target="6APCMfDVziARA75Oa-AB-52">
          <mxGeometry relative="1" as="geometry">
            <mxPoint x="1345" y="375" as="sourcePoint" />
            <Array as="points">
              <mxPoint x="1325" y="375" />
            </Array>
          </mxGeometry>
        </mxCell>
        <mxCell id="6APCMfDVziARA75Oa-AB-55" value="removeItemInven(catNum, location)" style="edgeLabel;html=1;align=center;verticalAlign=middle;resizable=0;points=[];fontSize=19;" vertex="1" connectable="0" parent="6APCMfDVziARA75Oa-AB-54">
          <mxGeometry x="-0.0775" y="-1" relative="1" as="geometry">
            <mxPoint as="offset" />
          </mxGeometry>
        </mxCell>
        <mxCell id="6APCMfDVziARA75Oa-AB-56" value="prodCTR:ProductControler" style="shape=umlLifeline;perimeter=lifelinePerimeter;whiteSpace=wrap;html=1;container=0;dropTarget=0;collapsible=0;recursiveResize=0;outlineConnect=0;portConstraint=eastwest;newEdgeStyle={&quot;edgeStyle&quot;:&quot;elbowEdgeStyle&quot;,&quot;elbow&quot;:&quot;vertical&quot;,&quot;curved&quot;:0,&quot;rounded&quot;:0};fontSize=19;" vertex="1" parent="1">
          <mxGeometry x="2045" y="70" width="220" height="400" as="geometry" />
        </mxCell>
        <mxCell id="6APCMfDVziARA75Oa-AB-57" value="" style="html=1;points=[];perimeter=orthogonalPerimeter;outlineConnect=0;targetShapes=umlLifeline;portConstraint=eastwest;newEdgeStyle={&quot;edgeStyle&quot;:&quot;elbowEdgeStyle&quot;,&quot;elbow&quot;:&quot;vertical&quot;,&quot;curved&quot;:0,&quot;rounded&quot;:0};fontSize=19;" vertex="1" parent="6APCMfDVziARA75Oa-AB-56">
          <mxGeometry x="105" y="310" width="10" height="30" as="geometry" />
        </mxCell>
        <mxCell id="6APCMfDVziARA75Oa-AB-58" style="edgeStyle=elbowEdgeStyle;rounded=0;orthogonalLoop=1;jettySize=auto;html=1;elbow=vertical;curved=0;fontSize=19;" edge="1" parent="1" target="6APCMfDVziARA75Oa-AB-56">
          <mxGeometry relative="1" as="geometry">
            <mxPoint x="1755" y="395" as="sourcePoint" />
            <Array as="points">
              <mxPoint x="1715" y="395" />
            </Array>
          </mxGeometry>
        </mxCell>
        <mxCell id="6APCMfDVziARA75Oa-AB-59" value="&lt;span style=&quot;font-size: 19px; background-color: rgb(251, 251, 251);&quot;&gt;removeItemRepo(catNum, location)&lt;/span&gt;" style="edgeLabel;html=1;align=center;verticalAlign=middle;resizable=0;points=[];fontSize=19;" vertex="1" connectable="0" parent="6APCMfDVziARA75Oa-AB-58">
          <mxGeometry x="-0.0852" y="-2" relative="1" as="geometry">
            <mxPoint as="offset" />
          </mxGeometry>
        </mxCell>
        <mxCell id="6APCMfDVziARA75Oa-AB-60" value="fac:Facade" style="shape=umlLifeline;perimeter=lifelinePerimeter;whiteSpace=wrap;html=1;container=0;dropTarget=0;collapsible=0;recursiveResize=0;outlineConnect=0;portConstraint=eastwest;newEdgeStyle={&quot;edgeStyle&quot;:&quot;elbowEdgeStyle&quot;,&quot;elbow&quot;:&quot;vertical&quot;,&quot;curved&quot;:0,&quot;rounded&quot;:0};fontSize=19;" vertex="1" parent="1">
          <mxGeometry x="170" y="40" width="100" height="450" as="geometry" />
        </mxCell>
        <mxCell id="6APCMfDVziARA75Oa-AB-61" value="" style="html=1;points=[];perimeter=orthogonalPerimeter;outlineConnect=0;targetShapes=umlLifeline;portConstraint=eastwest;newEdgeStyle={&quot;edgeStyle&quot;:&quot;elbowEdgeStyle&quot;,&quot;elbow&quot;:&quot;vertical&quot;,&quot;curved&quot;:0,&quot;rounded&quot;:0};fontSize=19;" vertex="1" parent="6APCMfDVziARA75Oa-AB-60">
          <mxGeometry x="45" y="110" width="10" height="280" as="geometry" />
        </mxCell>
        <mxCell id="6APCMfDVziARA75Oa-AB-62" value="SD ReportDamage" style="shape=umlFrame;whiteSpace=wrap;html=1;pointerEvents=0;width=110;height=60;" vertex="1" parent="1">
          <mxGeometry x="40" y="20" width="2330" height="530" as="geometry" />
        </mxCell>
      </root>
    </mxGraphModel>
  </diagram>
</mxfile>
